HIERARCHY
ROOT Hips
{
	OFFSET 0.00000 0.00000 0.00000
	CHANNELS 6 Xposition Yposition Zposition Zrotation Yrotation Xrotation 
	JOINT LHipJoint
	{
		OFFSET 0 0 0
		CHANNELS 3 Zrotation Yrotation Xrotation
		JOINT LeftUpLeg
		{
			OFFSET 1.48831 -1.59570 0.95625
			CHANNELS 3 Zrotation Yrotation Xrotation
			JOINT LeftLeg
			{
				OFFSET 2.20856 -6.06797 0.00000
				CHANNELS 3 Zrotation Yrotation Xrotation
				JOINT LeftFoot
				{
					OFFSET 2.62924 -7.22379 0.00000
					CHANNELS 3 Zrotation Yrotation Xrotation
					JOINT LeftToeBase
					{
						OFFSET 0.16802 -0.46163 2.41673
						CHANNELS 3 Zrotation Yrotation Xrotation
						End Site
						{
							OFFSET 0.00000 -0.00000 1.23760
						}
					}
				}
			}
		}
	}
	JOINT RHipJoint
	{
		OFFSET 0 0 0
		CHANNELS 3 Zrotation Yrotation Xrotation
		JOINT RightUpLeg
		{
			OFFSET -1.56796 -1.59570 0.95625
			CHANNELS 3 Zrotation Yrotation Xrotation
			JOINT RightLeg
			{
				OFFSET -2.29239 -6.29829 0.00000
				CHANNELS 3 Zrotation Yrotation Xrotation
				JOINT RightFoot
				{
					OFFSET -2.66963 -7.33475 0.00000
					CHANNELS 3 Zrotation Yrotation Xrotation
					JOINT RightToeBase
					{
						OFFSET -0.18185 -0.49964 2.34359
						CHANNELS 3 Zrotation Yrotation Xrotation
						End Site
						{
							OFFSET -0.00000 -0.00000 1.20477
						}
					}
				}
			}
		}
	}
	JOINT LowerBack
	{
		OFFSET 0 0 0
		CHANNELS 3 Zrotation Yrotation Xrotation
		JOINT Spine
		{
			OFFSET 0.03505 2.15832 -0.34324
			CHANNELS 3 Zrotation Yrotation Xrotation
			JOINT Spine1
			{
				OFFSET -0.01089 2.17963 0.04689
				CHANNELS 3 Zrotation Yrotation Xrotation
				JOINT Neck
				{
					OFFSET 0 0 0
					CHANNELS 3 Zrotation Yrotation Xrotation
					JOINT Neck1
					{
						OFFSET 0.04686 1.69404 0.22159
						CHANNELS 3 Zrotation Yrotation Xrotation
						JOINT Head
						{
							OFFSET 0.00265 1.69305 -0.01513
							CHANNELS 3 Zrotation Yrotation Xrotation
							End Site
							{
								OFFSET -0.00415 1.80215 -0.03034
							}
						}
					}
				}
				JOINT LeftShoulder
				{
					OFFSET 0 0 0
					CHANNELS 3 Zrotation Yrotation Xrotation
					JOINT LeftArm
					{
						OFFSET 3.67184 1.11724 -0.19002
						CHANNELS 3 Zrotation Yrotation Xrotation
						JOINT LeftForeArm
						{
							OFFSET 5.17714 -0.00000 -0.00000
							CHANNELS 3 Zrotation Yrotation Xrotation
							JOINT LeftHand
							{
								OFFSET 3.43679 -0.00000 -0.00000
								CHANNELS 3 Zrotation Yrotation Xrotation
								JOINT LeftFingerBase
								{
									OFFSET 0 0 0
									CHANNELS 3 Zrotation Yrotation Xrotation
									JOINT LeftHandIndex1
									{
										OFFSET 0.57312 -0.00000 -0.00000
										CHANNELS 3 Zrotation Yrotation Xrotation
										End Site
										{
											OFFSET 0.46206 -0.00000 -0.00000
										}
									}
								}
								JOINT LThumb
								{
									OFFSET 0 0 0
									CHANNELS 3 Zrotation Yrotation Xrotation
									End Site
									{
										OFFSET 0.46912 -0.00000 0.46912
									}
								}
							}
						}
					}
				}
				JOINT RightShoulder
				{
					OFFSET 0 0 0
					CHANNELS 3 Zrotation Yrotation Xrotation
					JOINT RightArm
					{
						OFFSET -3.59596 0.95831 -0.26050
						CHANNELS 3 Zrotation Yrotation Xrotation
						JOINT RightForeArm
						{
							OFFSET -5.23908 -0.00000 -0.00000
							CHANNELS 3 Zrotation Yrotation Xrotation
							JOINT RightHand
							{
								OFFSET -3.46485 -0.00000 -0.00000
								CHANNELS 3 Zrotation Yrotation Xrotation
								JOINT RightFingerBase
								{
									OFFSET 0 0 0
									CHANNELS 3 Zrotation Yrotation Xrotation
									JOINT RightHandIndex1
									{
										OFFSET -0.60875 -0.00000 -0.00000
										CHANNELS 3 Zrotation Yrotation Xrotation
										End Site
										{
											OFFSET -0.49079 -0.00000 -0.00000
										}
									}
								}
								JOINT RThumb
								{
									OFFSET 0 0 0
									CHANNELS 3 Zrotation Yrotation Xrotation
									End Site
									{
										OFFSET -0.49829 -0.00000 0.49829
									}
								}
							}
						}
					}
				}
			}
		}
	}
}
MOTION
Frames: 7
Frame Time: .0083333
11.2867 16.2579 -2.6122 -1.0898 -60.5591 31.2479 0.0000 0.0000 0.0000 -17.5485 -9.4487 -55.0050 3.6931 11.7405 34.8199 0.3286 -5.3112 -10.2974 0.0058 0.4915 1.3506 0.0000 0.0000 0.0000 16.3981 10.7641 -63.0065 -5.8703 -14.3015 44.4591 -0.6645 -3.4617 -17.0409 -0.4671 -4.3835 12.1582 5.6660 -0.9029 29.4229 0.9016 0.7819 0.2122 -2.4077 -0.0818 -15.2839 10.2636 9.8503 -6.1893 -27.8004 9.2469 -20.1779 -10.6234 5.0912 -2.5855 -0.0000 0.0000 0.0000 -87.4541 -26.6360 7.6256 74.8446 -59.1141 -46.9141 -0.0000 -0.0000 3.5899 43.7941 -9.0620 -8.5873 -7.1250 0.0000 -0.0000 11.7793 17.6732 -7.8148 -0.0000 0.0000 0.0000 77.0564 40.1917 8.2684 -47.3447 51.8668 -24.0692 0.0000 0.0000 17.5603 -57.2930 5.4961 -8.4830 7.1250 -0.0000 -0.0000 -21.5438 -20.1338 -13.8101
11.2899 16.2528 -2.6194 -0.9516 -60.4732 31.2191 0.0000 0.0000 0.0000 -17.5454 -9.5771 -55.1514 3.7052 11.7574 34.8791 0.3267 -5.3153 -10.2709 0.0059 0.4966 1.3647 0.0000 0.0000 0.0000 16.3049 10.7665 -63.2043 -5.9011 -14.3318 44.5834 -0.6698 -3.4886 -17.1158 -0.4685 -4.3899 12.1764 5.7284 -0.8899 29.5165 0.9253 0.8257 0.2605 -2.4322 -0.0659 -15.2658 10.2158 9.8005 -6.2156 -27.8491 9.1665 -20.1894 -10.6388 5.0556 -2.5989 -0.0000 0.0000 0.0000 -87.7041 -26.5835 8.0133 74.7207 -59.0992 -46.8078 -0.0000 -0.0000 3.7008 43.9988 -9.2292 -8.8037 -7.1250 0.0000 -0.0000 11.8844 17.4133 -7.9571 -0.0000 0.0000 0.0000 77.0406 40.4762 8.2756 -47.1794 51.7926 -23.9393 0.0000 0.0000 17.6461 -57.5047 5.5795 -8.6789 7.1250 -0.0000 -0.0000 -21.6480 -19.9406 -13.9902
11.2932 16.2477 -2.6262 -0.8042 -60.3773 31.1796 0.0000 0.0000 0.0000 -17.5579 -9.6959 -55.2941 3.7157 11.7722 34.9308 0.3241 -5.3354 -10.2345 0.0059 0.4978 1.3679 0.0000 0.0000 0.0000 16.2130 10.7534 -63.4058 -5.9329 -14.3630 44.7117 -0.6749 -3.5157 -17.1887 -0.4687 -4.3913 12.1801 5.7997 -0.8853 29.6122 0.9470 0.8617 0.3080 -2.4607 -0.0541 -15.2497 10.1613 9.7510 -6.2374 -27.8881 9.0857 -20.2118 -10.6506 5.0205 -2.6177 0.0000 0.0000 0.0000 -87.9410 -26.5110 8.4032 74.6320 -59.0885 -46.7317 -0.0000 -0.0000 3.8053 44.2149 -9.3727 -9.0038 -7.1250 0.0000 -0.0000 12.0011 17.1815 -8.1012 0.0000 0.0000 0.0000 77.0428 40.7495 8.2956 -47.0417 51.7304 -23.8312 0.0000 0.0000 17.7484 -57.7361 5.6646 -8.8865 7.1250 -0.0000 -0.0000 -21.7632 -19.7378 -14.1852
11.2965 16.2426 -2.6329 -0.6444 -60.2797 31.1274 0.0000 0.0000 0.0000 -17.5907 -9.7983 -55.4360 3.7251 11.7853 34.9767 0.3204 -5.3774 -10.1864 0.0060 0.4999 1.3737 0.0000 0.0000 0.0000 16.1174 10.7299 -63.6103 -5.9653 -14.3946 44.8423 -0.6796 -3.5426 -17.2565 -0.4679 -4.3872 12.1685 5.8727 -0.8856 29.7111 0.9651 0.8919 0.3531 -2.4918 -0.0453 -15.2383 10.0951 9.7012 -6.2540 -27.9160 9.0039 -20.2444 -10.6573 4.9859 -2.6423 0.0000 -0.0000 0.0000 -88.1697 -26.4222 8.7867 74.5739 -59.0815 -46.6818 -0.0000 -0.0000 3.9054 44.4227 -9.5204 -9.2074 -7.1250 0.0000 -0.0000 12.1106 16.9443 -8.2429 0.0000 -0.0000 0.0000 77.0491 41.0088 8.3368 -46.9194 51.6749 -23.7352 0.0000 0.0000 17.8444 -57.9864 5.7542 -9.1107 7.1250 -0.0000 -0.0000 -21.8877 -19.5204 -14.3965
11.2995 16.2375 -2.6395 -0.4765 -60.1857 31.0645 0.0000 0.0000 0.0000 -17.6427 -9.8780 -55.5779 3.7339 11.7976 35.0196 0.3157 -5.4443 -10.1256 0.0061 0.5040 1.3849 0.0000 0.0000 0.0000 16.0191 10.7024 -63.8127 -5.9980 -14.4264 44.9738 -0.6839 -3.5689 -17.3199 -0.4664 -4.3806 12.1499 5.9411 -0.8868 29.8164 0.9792 0.9197 0.3936 -2.5238 -0.0376 -15.2352 10.0160 9.6505 -6.2656 -27.9320 8.9215 -20.2818 -10.6581 4.9520 -2.6712 0.0000 -0.0000 0.0000 -88.3767 -26.2847 9.1810 74.5913 -59.0836 -46.6967 -0.0000 -0.0000 3.9818 44.6304 -9.6603 -9.4059 -7.1250 0.0000 -0.0000 12.2209 16.7162 -8.3839 0.0000 -0.0000 0.0000 77.0889 41.2487 8.3891 -46.8342 51.6360 -23.6683 0.0000 0.0000 17.9519 -58.2256 5.8699 -9.3755 7.1250 -0.0000 -0.0000 -21.9951 -19.2583 -14.6203
11.3023 16.2324 -2.6460 -0.3183 -60.0975 31.0071 0.0000 0.0000 0.0000 -17.7005 -9.9344 -55.7224 3.7429 11.8102 35.0637 0.3098 -5.5372 -10.0529 0.0066 0.5261 1.4457 0.0000 0.0000 0.0000 15.9222 10.6817 -64.0067 -6.0303 -14.4577 45.1034 -0.6883 -3.5930 -17.3834 -0.4661 -4.3788 12.1450 6.0126 -0.8865 29.9276 0.9896 0.9509 0.4287 -2.5631 -0.0291 -15.2406 9.9334 9.5970 -6.2661 -27.9457 8.8344 -20.3255 -10.6588 4.9170 -2.7053 -0.0000 -0.0000 0.0000 -88.5779 -26.1426 9.5634 74.6031 -59.0850 -46.7068 -0.0000 -0.0000 4.0617 44.8298 -9.8218 -9.6243 -7.1250 0.0000 -0.0000 12.3206 16.4595 -8.5262 -0.0000 -0.0000 0.0000 77.1394 41.4770 8.4442 -46.7567 51.6006 -23.6076 0.0000 0.0000 18.0603 -58.4371 5.9964 -9.6510 7.1250 -0.0000 -0.0000 -22.0808 -18.9826 -14.8357
11.3047 16.2273 -2.6524 -0.1718 -60.0177 30.9589 0.0000 0.0000 0.0000 -17.7584 -9.9720 -55.8717 3.7528 11.8239 35.1119 0.3032 -5.6510 -9.9719 0.0078 0.5708 1.5684 0.0000 0.0000 0.0000 15.8283 10.6698 -64.1930 -6.0617 -14.4879 45.2289 -0.6930 -3.6107 -17.4456 -0.4678 -4.3867 12.1672 6.0852 -0.8815 30.0433 0.9965 0.9889 0.4573 -2.6095 -0.0182 -15.2549 9.8452 9.5420 -6.2663 -27.9584 8.7471 -20.3606 -10.6576 4.8819 -2.7374 -0.0000 -0.0000 0.0000 -88.7707 -26.0034 9.9375 74.5868 -59.0830 -46.6928 -0.0000 -0.0000 4.1500 45.0306 -9.9901 -9.8520 -7.1250 0.0000 -0.0000 12.4191 16.1920 -8.6717 -0.0000 -0.0000 0.0000 77.1905 41.6948 8.4941 -46.6722 51.5619 -23.5414 0.0000 0.0000 18.1683 -58.6056 6.1191 -9.9078 7.1250 -0.0000 -0.0000 -22.1407 -18.7231 -15.0232
